<?xml version="1.0" encoding="utf-8"?>
<!-- Generator: Adobe Illustrator 21.1.0, SVG Export Plug-In . SVG Version: 6.00 Build 0)  -->
<svg version="1.1" id="Layer_1" xmlns="http://www.w3.org/2000/svg" xmlns:xlink="http://www.w3.org/1999/xlink" x="0px" y="0px"
	 viewBox="0 0 540 540.2" style="enable-background:new 0 0 540 540.2;" xml:space="preserve">
<style type="text/css">
	.st0{fill:#00AEEF;}
	.st1{fill:#FFFFFF;}
</style>
<rect class="st0" width="540" height="540.2"/>
<g>
	<path class="st1" d="M214.7,185.6c12.3-12.3,22.6-21.1,32.6-27.5c10-6.4,22.4-9.6,37.4-9.6c23.6,0,40.4,8.1,50.4,24.3
		c10,16.2,15,37.6,15,64.1v172.7c0,7.3-3.6,12-10.9,14c-7.3,2.1-17,3.6-29.3,4.5v7.5h139v-6.2c-4.1-0.4-8.5-1-13.3-1.7
		c-4.8-0.7-9.2-1.6-13.3-2.7c-4.1-1.2-7.6-2.9-10.6-5.1c-3-2.3-4.4-5-4.4-8.2V210.2c0-31.1-7.1-56.4-21.1-76
		c-14.1-19.6-34.3-29.4-60.6-29.4c-12.2,0-24,2.4-35.4,7.2c-11.3,4.8-21.8,10.9-31.3,18.2c-9.6,7.3-18.1,15.4-25.6,24.3
		c-7.5,8.9-13.7,17.2-18.7,25"/>
	<path class="st1" d="M197.7,198.2v212.6c0.9,4.6,2.5,7.9,4.8,9.9c2.3,2.1,5,3.5,8.2,4.5c3.2,0.9,6.8,1.5,10.9,1.7
		c4.1,0.2,8.4,0.8,13,1.7v6.8H103v-6.8c10.4-0.9,19.4-3,26.9-6.2c7.5-3.2,11.2-8.4,11.2-15.8V171.1c0-3.7-0.4-6.4-1-8.2
		c-0.7-1.8-2.6-3.9-5.8-6.2c-4.1-2.3-8.9-4.9-14.3-7.9c-5.5-3-10.9-5.6-16.3-7.9v-4.1l89.2-32.2h4.6L197.7,198.2z"/>
</g>
</svg>
